<?xml version="1.0" encoding="utf-8"?>
<!-- Generator: Adobe Illustrator 19.2.1, SVG Export Plug-In . SVG Version: 6.00 Build 0)  -->
<svg version="1.1" id="Layer_1" xmlns="http://www.w3.org/2000/svg" xmlns:xlink="http://www.w3.org/1999/xlink" x="0px" y="0px"
	 viewBox="0 0 95 149.99" style="enable-background:new 0 0 95 149.99;" xml:space="preserve">
<style type="text/css">
	.st0{fill:#B3C471;}
	.st1{fill:#CAD681;}
	.st2{fill:#585948;}
	.st3{fill:#7D1F4D;}
	.st4{fill:#FFFFFF;}
	.st5{fill:#5CD7FF;}
	.st6{fill:#7BF0D3;}
	.st7{fill:#4579B3;}
	.st8{fill:#E75C54;}
	.st9{fill:#FFE75B;}
	.st10{fill:#C55049;}
	.st11{fill:#E3B347;}
	.st12{fill:#A54242;}
	.st13{fill:#F7CC46;}
	.st14{fill:#E5B72D;}
	.st15{fill:#644E35;}
	.st16{opacity:0.2;}
	.st17{fill:#E5A13F;}
	.st18{fill:#A0A1A4;}
	.st19{fill:#6A5C4F;}
	.st20{fill:#D8F0F3;}
	.st21{fill:#64574B;}
	.st22{fill:#B6D7E0;}
	.st23{fill:#564B40;}
	.st24{fill:#99BCC8;}
	.st25{fill:#49494B;}
	.st26{fill:#EAFFFF;}
	.st27{fill:#756557;}
	.st28{fill:#383A3B;}
	.st29{fill:#2EB67F;}
	.st30{fill:#6D6D70;}
	.st31{fill:#59595B;}
	.st32{fill:#51DEFF;}
	.st33{fill:#40E0D6;}
	.st34{fill:#8FD7FF;}
	.st35{fill:#40CFE9;}
	.st36{fill:#3ED1BC;}
	.st37{fill:#8EB9FF;}
	.st38{fill:#425DB4;}
	.st39{fill:#F2557C;}
	.st40{fill:#CE3A62;}
	.st41{fill:#E3396F;}
	.st42{fill:#F4B0C5;}
	.st43{fill:#E73B60;}
	.st44{fill:#C5284C;}
	.st45{fill:#D92756;}
	.st46{fill:#EAEBEB;}
	.st47{clip-path:url(#SVGID_2_);fill:#E5E5E5;}
	.st48{fill:#D3D3D3;}
	.st49{fill:#E5E5E5;}
	.st50{fill:#254DAA;}
	.st51{fill:#214599;}
	.st52{fill:#F7ACAF;}
	.st53{fill:#EB2E38;}
	.st54{fill:#FFD66F;}
	.st55{fill:#CFA353;}
	.st56{fill:#CFC3BE;}
	.st57{fill:#87685C;}
	.st58{fill:#82D5A2;}
	.st59{fill:#56C681;}
	.st60{fill:#4AB569;}
	.st61{fill:#65CB8C;}
	.st62{fill:#DFE0E1;}
	.st63{fill:#1C9046;}
	.st64{fill:#76D8E8;}
	.st65{fill:#D393FF;}
	.st66{fill:#76D0E3;}
	.st67{fill:#D888FF;}
	.st68{fill:#715D94;}
	.st69{fill:#EA5FC9;}
	.st70{fill:#E04849;}
	.st71{fill:#F4CA94;}
	.st72{fill:#FC5B5A;}
	.st73{fill:#FC88E3;}
	.st74{fill:#FCAA52;}
	.st75{fill:#FDC866;}
	.st76{fill:#7A6CBE;}
	.st77{fill:#9480BE;}
	.st78{fill:#57CC76;}
	.st79{fill:#59E694;}
	.st80{fill:#434244;}
</style>
<g id="XMLID_6_">
	<g>
		<g>
			<path class="st69" d="M74,36.92v106.89c0,1.66-0.88,3.22-2.33,4.03c-0.49,0.27-1.05,0.52-1.67,0.71V40.1v-0.38L74,36.92z"/>
		</g>
		<g>
			<path class="st70" d="M94,36.92v106.89c0,1.66-0.88,3.22-2.33,4.03c-0.49,0.27-1.05,0.52-1.67,0.71V40.1v-0.38L94,36.92z"/>
		</g>
		<g>
			<path class="st70" d="M85,40.1v108.47c-0.66-0.21-1.24-0.47-1.74-0.76C81.84,147,81,145.46,81,143.83V36.92L85,40.1z"/>
		</g>
		<g>
			<polygon class="st71" points="85,40.1 81,36.92 83.71,29 91,29 91.01,29 91.25,28.92 94,36.92 90,39.72 87.5,36.92 			"/>
		</g>
		<g>
			<polygon class="st72" points="90.75,27.46 91.25,28.92 91.01,29 91,29 83.71,29 84.24,27.46 87.5,18 90.74,27.46 			"/>
		</g>
		<g>
			<path class="st72" d="M90,40.1v108.45c-0.81,0.26-1.72,0.42-2.74,0.39c-0.83-0.02-1.58-0.16-2.26-0.37V40.1l2.5-3.18l2.5,2.8
				V40.1z"/>
		</g>
		<g>
			<polygon class="st71" points="65,40.1 61,36.92 63.71,29 71,29 71.01,29 71.25,28.92 74,36.92 70,39.72 67.5,36.92 			"/>
		</g>
		<g>
			<polygon class="st73" points="70.75,27.46 71.25,28.92 71.01,29 71,29 63.71,29 64.24,27.46 67.5,18 70.74,27.46 			"/>
		</g>
		<g>
			<path class="st73" d="M70,40.1v108.45c-0.81,0.26-1.72,0.42-2.74,0.39c-0.83-0.02-1.58-0.16-2.26-0.37V40.1l2.5-3.18l2.5,2.8
				V40.1z"/>
		</g>
		<g>
			<path class="st69" d="M65,40.1v108.47c-0.66-0.21-1.24-0.47-1.74-0.76C61.84,147,61,145.46,61,143.83V36.92L65,40.1z"/>
		</g>
		<g>
			<path class="st74" d="M54,36.92v106.89c0,1.66-0.88,3.22-2.33,4.03c-0.49,0.27-1.05,0.52-1.67,0.71V40.1v-0.38L54,36.92z"/>
		</g>
		<g>
			<polygon class="st71" points="45,40.1 41,36.92 43.71,29 51,29 51.01,29 51.25,28.92 54,36.92 50,39.72 47.5,36.92 			"/>
		</g>
		<g>
			<polygon class="st75" points="50.75,27.46 51.25,28.92 51.01,29 51,29 43.71,29 44.24,27.46 47.5,18 50.74,27.46 			"/>
		</g>
		<g>
			<path class="st75" d="M50,40.1v108.45c-0.81,0.26-1.72,0.42-2.74,0.39c-0.83-0.02-1.58-0.16-2.26-0.37V40.1l2.5-3.18l2.5,2.8
				V40.1z"/>
		</g>
		<g>
			<path class="st74" d="M45,40.1v108.47c-0.66-0.21-1.24-0.47-1.74-0.76C41.84,147,41,145.46,41,143.83V36.92L45,40.1z"/>
		</g>
		<g>
			<path class="st76" d="M34,36.92v106.89c0,1.66-0.88,3.22-2.33,4.03c-0.49,0.27-1.05,0.52-1.67,0.71V40.1v-0.38L34,36.92z"/>
		</g>
		<g>
			<polygon class="st71" points="25,40.1 21,36.92 23.71,29 31,29 31.01,29 31.25,28.92 34,36.92 30,39.72 27.5,36.92 			"/>
		</g>
		<g>
			<polygon class="st77" points="30.75,27.46 31.25,28.92 31.01,29 31,29 23.71,29 24.24,27.46 27.5,18 30.74,27.46 			"/>
		</g>
		<g>
			<path class="st77" d="M30,40.1v108.45c-0.81,0.26-1.72,0.42-2.74,0.39c-0.83-0.02-1.58-0.16-2.26-0.37V40.1l2.5-3.18l2.5,2.8
				V40.1z"/>
		</g>
		<g>
			<path class="st76" d="M25,40.1v108.47c-0.66-0.21-1.24-0.47-1.74-0.76C21.84,147,21,145.46,21,143.83V36.92L25,40.1z"/>
		</g>
		<g>
			<path class="st78" d="M14,36.92v106.89c0,1.66-0.88,3.22-2.33,4.03c-0.49,0.27-1.05,0.52-1.67,0.71V40.1v-0.38L14,36.92z"/>
		</g>
		<g>
			<polygon class="st71" points="5,40.1 1,36.92 3.71,29 11,29 11.01,29 11.25,28.92 14,36.92 10,39.72 7.5,36.92 			"/>
		</g>
		<g>
			<polygon class="st79" points="10.75,27.46 11.25,28.92 11.01,29 11,29 3.71,29 4.24,27.46 7.5,18 10.74,27.46 			"/>
		</g>
		<g>
			<path class="st79" d="M10,40.1v108.45c-0.81,0.26-1.72,0.42-2.74,0.39c-0.83-0.02-1.58-0.16-2.26-0.37V40.1l2.5-3.18l2.5,2.8
				V40.1z"/>
		</g>
		<g>
			<path class="st78" d="M5,40.1v108.47c-0.66-0.21-1.24-0.47-1.74-0.76C1.84,147,1,145.46,1,143.83V36.92L5,40.1z"/>
		</g>
	</g>
	<g>
		<path class="st80" d="M14.945,36.595l-3.249-9.459l-1.893,0.648L9.878,28H5.12l2.377-6.922l2.297,6.707l1.893-0.648l-3.24-9.46
			C8.308,17.272,7.928,17,7.501,17H7.5c-0.427,0-0.807,0.271-0.945,0.674L0.054,36.596c-0.036,0.106-0.051,0.215-0.051,0.324H0
			V143.83c0,2.019,1.06,3.876,2.758,4.845c0.585,0.339,1.237,0.624,1.947,0.85c0.825,0.255,1.677,0.395,2.525,0.415
			c0.09,0.002,0.181,0.004,0.271,0.004c0.949,0,1.891-0.148,2.793-0.438c0.634-0.195,1.259-0.461,1.864-0.793
			c1.753-0.98,2.842-2.858,2.842-4.903V36.92h-0.001C14.999,36.811,14.982,36.702,14.945,36.595z M4.433,30h6.132l2.245,6.533
			l-2.655,1.859l-1.908-2.138c-0.198-0.221-0.474-0.336-0.777-0.333c-0.296,0.009-0.572,0.149-0.755,0.381l-1.879,2.39l-2.66-2.115
			L4.433,30z M2,143.83V38.992l2,1.59v106.482c-0.08-0.042-0.168-0.079-0.245-0.124C2.673,146.324,2,145.132,2,143.83z
			 M7.283,147.94c-0.438-0.01-0.862-0.072-1.283-0.159V40.446l1.549-1.97L9,40.102v107.682
			C8.442,147.907,7.882,147.964,7.283,147.94z M11.188,146.964c-0.062,0.034-0.126,0.059-0.188,0.092V40.241l2-1.4V143.81
			C13,145.13,12.304,146.34,11.188,146.964z"/>
		<path class="st80" d="M34.945,36.595l-3.249-9.459l-1.893,0.648L29.878,28H25.12l2.377-6.922l2.297,6.707l1.893-0.648l-3.24-9.46
			C28.308,17.272,27.928,17,27.501,17H27.5c-0.427,0-0.807,0.271-0.945,0.674l-6.501,18.922c-0.036,0.106-0.051,0.215-0.051,0.324
			H20V143.83c0,2.019,1.06,3.876,2.758,4.845c0.585,0.339,1.237,0.624,1.947,0.85c0.825,0.255,1.677,0.395,2.525,0.415
			c0.09,0.002,0.181,0.004,0.271,0.004c0.949,0,1.891-0.148,2.793-0.438c0.634-0.195,1.259-0.461,1.864-0.793
			c1.753-0.98,2.842-2.858,2.842-4.903V36.92h-0.001C34.999,36.811,34.982,36.702,34.945,36.595z M24.433,30h6.132l2.245,6.533
			l-2.655,1.859l-1.908-2.138c-0.198-0.221-0.473-0.336-0.777-0.333c-0.296,0.009-0.572,0.149-0.755,0.381l-1.879,2.39l-2.66-2.115
			L24.433,30z M22,143.83V38.992l2,1.59v106.482c-0.08-0.042-0.168-0.079-0.245-0.124C22.673,146.324,22,145.132,22,143.83z
			 M27.283,147.94c-0.438-0.01-0.862-0.072-1.283-0.159V40.446l1.549-1.97L29,40.102v107.682
			C28.442,147.907,27.88,147.964,27.283,147.94z M31.188,146.964c-0.062,0.034-0.126,0.059-0.188,0.092V40.241l2-1.4V143.81
			C33,145.13,32.304,146.34,31.188,146.964z"/>
		<path class="st80" d="M54.945,36.595l-3.249-9.459l-1.893,0.648L49.878,28H45.12l2.377-6.922l2.297,6.707l1.893-0.648l-3.24-9.46
			C48.308,17.272,47.928,17,47.501,17H47.5c-0.427,0-0.807,0.271-0.945,0.674l-6.501,18.922c-0.036,0.106-0.051,0.215-0.051,0.324
			H40V143.83c0,2.019,1.06,3.876,2.758,4.845c0.585,0.339,1.237,0.624,1.947,0.85c0.825,0.255,1.677,0.395,2.525,0.415
			c0.09,0.002,0.181,0.004,0.271,0.004c0.949,0,1.891-0.148,2.793-0.438c0.634-0.195,1.259-0.461,1.864-0.793
			c1.753-0.98,2.842-2.858,2.842-4.903V36.92h-0.001C54.999,36.811,54.982,36.702,54.945,36.595z M44.433,30h6.132l2.245,6.533
			l-2.655,1.859l-1.908-2.138c-0.198-0.221-0.471-0.336-0.777-0.333c-0.296,0.009-0.572,0.149-0.755,0.381l-1.879,2.39l-2.66-2.115
			L44.433,30z M42,143.83V38.992l2,1.59v106.482c-0.08-0.042-0.168-0.079-0.245-0.124C42.673,146.324,42,145.132,42,143.83z
			 M47.283,147.94c-0.438-0.01-0.862-0.072-1.283-0.159V40.446l1.549-1.97L49,40.102v107.681
			C48.441,147.907,47.879,147.964,47.283,147.94z M51.188,146.964c-0.062,0.034-0.126,0.059-0.188,0.092V40.241l2-1.4V143.81
			C53,145.13,52.304,146.34,51.188,146.964z"/>
		<path class="st80" d="M74.945,36.595l-3.249-9.459l-1.893,0.648L69.878,28H65.12l2.377-6.922l2.297,6.707l1.893-0.648l-3.24-9.46
			C68.308,17.272,67.928,17,67.501,17H67.5c-0.427,0-0.807,0.271-0.945,0.674l-6.501,18.922c-0.036,0.106-0.051,0.215-0.051,0.324
			H60V143.83c0,2.019,1.06,3.876,2.758,4.845c0.585,0.339,1.237,0.624,1.947,0.85c0.825,0.255,1.677,0.395,2.525,0.415
			c0.09,0.002,0.181,0.004,0.271,0.004c0.949,0,1.891-0.148,2.793-0.438c0.634-0.195,1.259-0.461,1.864-0.793
			c1.753-0.98,2.842-2.858,2.842-4.903V36.92h-0.001C74.999,36.811,74.982,36.702,74.945,36.595z M64.433,30h6.132l2.245,6.533
			l-2.655,1.859l-1.908-2.138c-0.198-0.221-0.47-0.336-0.777-0.333c-0.296,0.009-0.572,0.149-0.755,0.381l-1.879,2.39l-2.66-2.115
			L64.433,30z M62,143.83V38.992l2,1.59v106.482c-0.08-0.042-0.168-0.079-0.245-0.124C62.673,146.324,62,145.132,62,143.83z
			 M67.283,147.94c-0.438-0.01-0.862-0.072-1.283-0.159V40.446l1.549-1.97L69,40.102v107.682
			C68.444,147.907,67.884,147.964,67.283,147.94z M71.188,146.964c-0.062,0.034-0.126,0.059-0.188,0.092V40.241l2-1.4V143.81
			C73,145.13,72.304,146.34,71.188,146.964z"/>
		<path class="st80" d="M94.999,36.92c0-0.109-0.017-0.218-0.054-0.325l-3.249-9.459l-1.893,0.648L89.878,28H85.12l2.377-6.922
			l2.297,6.707l1.893-0.648l-3.24-9.46C88.308,17.272,87.928,17,87.501,17H87.5c-0.427,0-0.807,0.271-0.945,0.674l-6.501,18.922
			c-0.036,0.106-0.051,0.215-0.051,0.324H80V143.83c0,2.019,1.06,3.876,2.758,4.845c0.585,0.339,1.237,0.624,1.947,0.85
			c0.825,0.255,1.677,0.395,2.525,0.415c0.09,0.002,0.181,0.004,0.271,0.004c0.949,0,1.891-0.148,2.793-0.438
			c0.634-0.195,1.259-0.461,1.864-0.793c1.753-0.98,2.842-2.858,2.842-4.903L94.999,36.92L94.999,36.92z M84.433,30h6.132
			l2.245,6.533l-2.655,1.859l-1.908-2.138c-0.197-0.221-0.469-0.336-0.777-0.333c-0.296,0.009-0.572,0.149-0.755,0.381l-1.879,2.39
			l-2.66-2.115L84.433,30z M82,143.83V38.992l2,1.59v106.482c-0.08-0.042-0.168-0.079-0.245-0.124
			C82.673,146.324,82,145.132,82,143.83z M87.283,147.94c-0.438-0.01-0.862-0.072-1.283-0.159V40.446l1.549-1.97L89,40.102v107.682
			C88.443,147.907,87.883,147.964,87.283,147.94z M91.188,146.964c-0.062,0.034-0.126,0.059-0.188,0.092V40.241l2-1.4V143.81
			C93,145.13,92.304,146.34,91.188,146.964z"/>
	</g>
</g>
</svg>
