<svg xmlns="http://www.w3.org/2000/svg" viewBox="0 0 400 300" width="406" height="306" class="illustration styles_illustrationTablet__1DWOa"><g id="_231_designer_flatline" data-name="#231_designer_flatline"><polygon points="108.13 206.11 97.84 206.11 83.1 74.53 93.38 74.53 108.13 206.11" fill="#fff"></polygon><path d="M108.13,206.61H97.84a.5.5,0,0,1-.49-.45L82.6,74.59a.51.51,0,0,1,.12-.39A.52.52,0,0,1,83.1,74H93.38a.51.51,0,0,1,.5.45l14.74,131.57a.47.47,0,0,1-.12.39A.48.48,0,0,1,108.13,206.61Zm-9.84-1h9.28L92.93,75H83.66Z" fill="#231f20"></path><polygon points="73.05 241.44 61.44 241.44 65.13 170.77 76.74 170.77 73.05 241.44" fill="#fff"></polygon><path d="M73.05,241.94H61.44a.48.48,0,0,1-.36-.15.5.5,0,0,1-.14-.37l3.69-70.68a.5.5,0,0,1,.5-.47H76.74a.48.48,0,0,1,.36.16.47.47,0,0,1,.14.37l-3.69,70.67A.49.49,0,0,1,73.05,241.94Zm-11.08-1H72.58l3.64-69.67H65.61Z" fill="#231f20"></path><polygon points="140.84 241.44 152.45 241.44 132.92 170.77 121.31 170.77 140.84 241.44" fill="#fff"></polygon><path d="M152.45,241.94H140.84a.5.5,0,0,1-.48-.36L120.83,170.9a.5.5,0,0,1,.08-.43.49.49,0,0,1,.4-.2h11.61a.5.5,0,0,1,.48.37l19.53,70.67a.47.47,0,0,1-.08.44A.5.5,0,0,1,152.45,241.94Zm-11.23-1H151.8l-19.26-69.67H122Z" fill="#231f20"></path><polygon points="153.32 203.67 52.11 203.67 38.85 85.37 140.06 85.37 153.32 203.67" fill="#fff"></polygon><path d="M153.32,204.17H52.11a.5.5,0,0,1-.5-.45L38.35,85.43a.46.46,0,0,1,.13-.39.48.48,0,0,1,.37-.17H140.06a.51.51,0,0,1,.5.44l13.25,118.3a.47.47,0,0,1-.12.39A.48.48,0,0,1,153.32,204.17Zm-100.77-1H152.76L139.61,85.87H39.41Z" fill="#231f20"></path><polygon points="42.61 203.67 162.81 203.67 164.04 214.62 43.84 214.62 42.61 203.67" fill="#fff"></polygon><path d="M164,215.12H43.84a.51.51,0,0,1-.5-.44l-1.23-11a.52.52,0,0,1,.13-.39.51.51,0,0,1,.37-.16h120.2a.5.5,0,0,1,.5.44l1.23,11a.52.52,0,0,1-.13.39A.51.51,0,0,1,164,215.12Zm-119.75-1H163.48l-1.11-10H43.17Z" fill="#231f20"></path><path d="M139,149.91H53.26a.5.5,0,0,1-.5-.44l-5.49-51.8a.52.52,0,0,1,.13-.39.51.51,0,0,1,.37-.16H133.5a.5.5,0,0,1,.5.44l5.49,51.8a.52.52,0,0,1-.13.39A.51.51,0,0,1,139,149.91Zm-85.28-1h84.73l-5.39-50.79H48.32Z" fill="#d1d3d4"></path><path d="M104.09,138.06a.45.45,0,0,1-.31-.11L75.2,115,52.35,137.92a.5.5,0,0,1-.7,0,.5.5,0,0,1,0-.71L74.81,114a.49.49,0,0,1,.66,0l28.93,23.23a.51.51,0,0,1,.08.71A.5.5,0,0,1,104.09,138.06Z" fill="#d1d3d4"></path><path d="M137.74,138.06a.51.51,0,0,1-.36-.15L115.19,115.1l-14.74,19.52a.5.5,0,0,1-.7.1.51.51,0,0,1-.1-.7l15.09-20a.51.51,0,0,1,.37-.2.52.52,0,0,1,.39.15l22.6,23.23a.51.51,0,0,1,0,.71A.49.49,0,0,1,137.74,138.06Z" fill="#d1d3d4"></path><path d="M105.44,196H58.14a.51.51,0,0,1-.5-.45L53.77,159a.52.52,0,0,1,.13-.39.51.51,0,0,1,.37-.16h47.3a.5.5,0,0,1,.5.45l3.87,36.53a.5.5,0,0,1-.13.39A.48.48,0,0,1,105.44,196Zm-46.85-1h46.3l-3.77-35.54H54.82Z" fill="#d1d3d4"></path><path d="M140.25,161.76h-32a.5.5,0,0,1-.5-.5.5.5,0,0,1,.5-.5h32a.51.51,0,0,1,.5.5A.5.5,0,0,1,140.25,161.76Z" fill="#d1d3d4"></path><path d="M141.36,172.3h-32a.5.5,0,0,1-.5-.5.5.5,0,0,1,.5-.5h32a.5.5,0,0,1,.5.5A.5.5,0,0,1,141.36,172.3Z" fill="#d1d3d4"></path><path d="M142.48,182.83h-32a.5.5,0,0,1,0-1h32a.5.5,0,0,1,0,1Z" fill="#d1d3d4"></path><path d="M134.45,193.36H111.64a.5.5,0,0,1-.5-.5.5.5,0,0,1,.5-.5h22.81a.51.51,0,0,1,.5.5A.5.5,0,0,1,134.45,193.36Z" fill="#d1d3d4"></path><path d="M58.14,196a.49.49,0,0,1-.38-.18.51.51,0,0,1,.06-.71l43.43-36.53a.5.5,0,1,1,.64.76L58.46,195.88A.49.49,0,0,1,58.14,196Z" fill="#d1d3d4"></path><path d="M105.44,196a.46.46,0,0,1-.29-.1L54,159.37a.5.5,0,0,1,.58-.82l51.17,36.54a.5.5,0,0,1,.12.7A.52.52,0,0,1,105.44,196Z" fill="#d1d3d4"></path><path d="M102.76,118.6a4.47,4.47,0,0,1-.13,3.08,5.78,5.78,0,0,1-5.3,3.31,6.9,6.9,0,0,1-6.48-4.46c-1.41-3.09-.19-6.16,2.77-8a5.81,5.81,0,0,0,.78-.51,5.32,5.32,0,0,0,.69-.73,17.48,17.48,0,0,1,2.24-2.23c.89,1.42,0,3.48,1,4.86.13.2.4.39.6.25,0-.47.62-.74,1.06-.56a2.15,2.15,0,0,1,.94,1A17.8,17.8,0,0,1,102.76,118.6Z" fill="#fbc2eb"></path><path d="M274.69,58c-.48.65-.94,1.31-1.39,2-5.16,7.81-7.86,16.86-11.87,25.24A124.77,124.77,0,0,1,247,108.84c-6.82,8.5-15.43,15.36-22.93,23.26s-14.09,17.39-15.33,28.21c-1.6,13.92,6.24,27.74,17.42,36.19s25.23,12.23,39.13,14c24.78,3.17,52.11-.31,70.51-17.21,8.27-7.6,13.36-17,18.46-26.83,4.74-9.15,8.2-16.62,6.51-27.34-1.35-8.54-5.05-16.5-9.05-24.16s-8.34-15.2-11.12-23.37c-2.4-7.07-2-14-3.47-21-1.28-6.1-5.91-11.24-10.43-15.25a41.62,41.62,0,0,0-12.45-8.1c-7.07-2.73-16-3-23.42-1.73C284.2,46.62,278.57,52.74,274.69,58Z" fill="#fff"></path><path d="M281.74,212.1a130,130,0,0,1-16.57-1.1c-16.76-2.14-29.64-6.75-39.36-14.1-12.2-9.22-19.11-23.6-17.62-36.64,1.08-9.34,6.14-18.66,15.47-28.5,2.9-3.06,6-6,9-8.86a147.36,147.36,0,0,0,13.87-14.38A124.89,124.89,0,0,0,261,85c1.39-2.9,2.64-5.94,3.86-8.88,2.28-5.55,4.65-11.29,8.05-16.43.45-.68.92-1.35,1.4-2h0c5.56-7.51,11.08-11.78,16.4-12.7,8.29-1.42,17.14-.77,23.69,1.76A41.71,41.71,0,0,1,327,54.94c6.14,5.47,9.5,10.4,10.58,15.53a81.46,81.46,0,0,1,1.18,8.46A55.23,55.23,0,0,0,341,91.43c2.27,6.67,5.65,13,8.92,19.19l2.17,4.11c3.91,7.52,7.73,15.66,9.09,24.31,1.68,10.67-1.66,18.19-6.56,27.65-5.37,10.36-10.47,19.54-18.56,27S311.11,212.1,281.74,212.1ZM275.1,58.28c-.48.64-.94,1.3-1.38,2-3.34,5.06-5.69,10.75-8,16.26-1.22,3-2.48,6-3.88,8.93a125.83,125.83,0,0,1-14.54,23.72,148.3,148.3,0,0,1-14,14.48c-3,2.84-6.11,5.77-9,8.81-9.17,9.68-14.15,18.82-15.19,27.93-1.46,12.7,5.3,26.72,17.22,35.73,9.58,7.24,22.3,11.79,38.89,13.91,39.33,5,60.81-8.55,70.11-17.09,8-7.32,13-16.42,18.35-26.69,4.82-9.29,8.1-16.66,6.46-27-1.34-8.5-5.11-16.56-9-24q-1.08-2.06-2.17-4.1c-3.29-6.19-6.68-12.59-9-19.34A56.59,56.59,0,0,1,337.75,79a79.15,79.15,0,0,0-1.16-8.36c-1-4.9-4.3-9.67-10.27-15a40.66,40.66,0,0,0-12.3-8c-6.38-2.46-15-3.1-23.16-1.7-5.06.87-10.36,5-15.76,12.3Z" fill="#231f20"></path><path d="M247.64,130.16c-20.58,12.26-37.43,64.78-45,92.26-.57,2,8.74,2.92,8.28,4.65-1.84,6.92,2.55,9.78,2.55,9.78L336,240.64s25.57-97.87,13.73-110.22S259.55,123.06,247.64,130.16Z" fill="#a6c0ee"></path><path d="M224.24,218.23a.53.53,0,0,1-.24-.06.5.5,0,0,1-.19-.68c.65-1.17,4.83-10.17,10.13-21.57,19.31-41.51,25.16-53.64,26.07-54.1a.5.5,0,0,1,.67.22.49.49,0,0,1-.16.63c-1.41,1.51-16,32.89-25.67,53.67-5.31,11.42-9.5,20.43-10.17,21.63A.49.49,0,0,1,224.24,218.23Z" fill="#231f20"></path><path d="M277.81,120.37c-1,.35-2,.72-3,1.11-1.6.62-3.31,1.44-4,3a6.78,6.78,0,0,0-.22,3.47,110.27,110.27,0,0,0,4.52,20.94c1.2,3.75,2.86,11.86,7.67,12.87,9.63,2,19.26-5.18,26.78-10.31a123.58,123.58,0,0,0,21.79-18.92c3.28-3.61,6.52-8.7,4.26-13-2.14-4.07-7.67-4.56-12.26-4.52C308,115.16,292.27,115.46,277.81,120.37Z" fill="#231f20"></path><path d="M286.15,162.62a17.6,17.6,0,0,1-3.52-.36c-4.45-.94-6.3-7.3-7.53-11.51l-.5-1.7a111.51,111.51,0,0,1-4.55-21,7.08,7.08,0,0,1,.27-3.72c.74-1.7,2.49-2.58,4.27-3.27,1-.39,2-.77,3.06-1.12h0c15-5.09,31.28-5.25,45.66-5.38,4.73,0,10.43.46,12.7,4.77,2.43,4.63-1,9.94-4.33,13.59a124.41,124.41,0,0,1-21.88,19l-1.46,1C301.93,157.28,294.16,162.62,286.15,162.62Zm37.68-47.11h-.51c-14.3.14-30.51.29-45.35,5.33h0c-1,.35-2,.72-3,1.1-1.58.62-3.12,1.38-3.72,2.75a6.34,6.34,0,0,0-.19,3.21,110.43,110.43,0,0,0,4.5,20.85c.17.5.34,1.09.52,1.72,1.16,4,2.91,10,6.78,10.81,8.81,1.85,17.75-4.29,24.94-9.23l1.46-1a123.12,123.12,0,0,0,21.7-18.84c3.1-3.41,6.35-8.34,4.18-12.45C333.18,116.06,328.16,115.51,323.83,115.51Zm-46,4.86Z" fill="#231f20"></path><path d="M284.72,109.65l-4.24,18.51s3.88,12.43,16.41,11.37a25,25,0,0,0,18.46-11l5.11-34.08s-8.22-6.16-2.59-25.19a60.47,60.47,0,0,1-32-.47S277.1,89,277.12,98.61,284.72,109.65,284.72,109.65Z" fill="#fff"></path><path d="M295.41,140.1c-11.59,0-15.36-11.66-15.4-11.79a.46.46,0,0,1,0-.26l4.12-18c-1.75-.55-7.49-3-7.5-11.4,0-9.57,8.39-29.18,8.75-30a.5.5,0,0,1,.6-.28,60.71,60.71,0,0,0,31.75.48.5.5,0,0,1,.63.61c-5.45,18.42,2.33,24.59,2.41,24.65a.48.48,0,0,1,.19.47l-5.11,34.08a.6.6,0,0,1-.06.19c-.07.1-6.22,10.16-18.85,11.23C296.41,140.07,295.9,140.1,295.41,140.1Zm-14.41-12c.46,1.35,4.39,11.85,15.84,10.89a24.67,24.67,0,0,0,18-10.67l5.05-33.7c-1.34-1.19-7.51-7.76-2.78-24.67a62.5,62.5,0,0,1-31-.59c-1.22,2.89-8.51,20.59-8.5,29.21,0,9.06,7.12,10.54,7.19,10.55a.57.57,0,0,1,.33.22.5.5,0,0,1,.06.38Z" fill="#231f20"></path><path d="M316.09,93a8,8,0,0,1,3.33-3.81A13.86,13.86,0,0,1,324,87.68a5.91,5.91,0,0,1,2.61-.07,4.85,4.85,0,0,1,1.62.89A6.15,6.15,0,0,1,330.65,92a7.37,7.37,0,0,1-.37,3.47,14.48,14.48,0,0,1-1.5,3.53,9.68,9.68,0,0,1-13.43,3" fill="#fff"></path><path d="M320.59,104.07a10.26,10.26,0,0,1-5.51-1.61.5.5,0,0,1,.54-.84,9.17,9.17,0,0,0,12.73-2.88,14,14,0,0,0,1.45-3.41,6.89,6.89,0,0,0,.36-3.23,5.74,5.74,0,0,0-2.26-3.2,4.37,4.37,0,0,0-1.44-.81,5.41,5.41,0,0,0-2.39.08,13.61,13.61,0,0,0-4.4,1.41,7.53,7.53,0,0,0-3.12,3.57.5.5,0,1,1-.92-.39,8.52,8.52,0,0,1,3.53-4,14.71,14.71,0,0,1,4.72-1.53,6.33,6.33,0,0,1,2.84-.06,5.38,5.38,0,0,1,1.8,1,6.6,6.6,0,0,1,2.62,3.8,7.75,7.75,0,0,1-.39,3.71,14.76,14.76,0,0,1-1.55,3.65,10.19,10.19,0,0,1-6.39,4.55A10.42,10.42,0,0,1,320.59,104.07Z" fill="#231f20"></path><path d="M294.86,94c-1.32,0-4.35-.2-5.4-1.89-1.28-2.09,5-8.73,7-10.72a.5.5,0,0,1,.71.71c-3.77,3.82-7.41,8.54-6.82,9.48.83,1.36,4,1.48,5.11,1.4a.5.5,0,0,1,.53.47.5.5,0,0,1-.47.53S295.22,94,294.86,94Z" fill="#231f20"></path><path d="M310.16,194.12H310a.5.5,0,0,1-.37-.6c.08-.32,7.74-32.52,19.25-54.38a.49.49,0,0,1,.67-.21.5.5,0,0,1,.21.67c-11.45,21.75-19.08,53.83-19.16,54.15A.49.49,0,0,1,310.16,194.12Z" fill="#231f20"></path><path d="M293.38,104.65h-.33a7.13,7.13,0,0,1-5.25-2.27c-2.75-3-2.49-7.94-2.47-8.15a.5.5,0,0,1,1,.06s-.26,4.71,2.21,7.42a6.18,6.18,0,0,0,4.54,1.94h.31c7.08,0,9.24-8,9.33-8.37a.49.49,0,0,1,.6-.36.5.5,0,0,1,.36.61C303.66,95.62,301.25,104.65,293.38,104.65Z" fill="#231f20"></path><path d="M284.72,109.65S296,113,305.36,105.94c0,0-8.52,17.24-23.17,14.8Z" fill="#231f20"></path><path d="M285,121.47a16.76,16.76,0,0,1-2.87-.24.51.51,0,0,1-.34-.21.52.52,0,0,1-.07-.39l2.53-11.09a.51.51,0,0,1,.24-.32.48.48,0,0,1,.39,0c.11,0,11.16,3.19,20.2-3.63a.5.5,0,0,1,.62,0,.51.51,0,0,1,.13.6C305.72,106.33,298.07,121.47,285,121.47Zm-2.19-1.14c11,1.48,18.43-8.52,21.06-12.76-7.88,4.79-16.59,3.2-18.76,2.69Z" fill="#231f20"></path><path d="M196.11,147.86c-.4-.78-8.49-33.08-9.36-35.44-2.15-5.86-25.91-13.57-29.33-12.22S143,124,148.81,125.07a3.81,3.81,0,0,0,4-2.13s-4.1,6.53-.31,8.08,6.1-2.47,6.1-2.47-2.62,4.85.76,4.74c1.85-.06,2.56-1.83,3.9-3-.72,1-1.26,3.93.68,4.56s3.09-2.76,4.4-4.91c2.48,14.77,6.2,54.45,16.26,89.83,3.32,11.65,16.4,16.77,26.25,7.26,12.9-12.46.81-33.2-3.86-47Z" fill="#fff"></path><path d="M199.54,232.53a14.68,14.68,0,0,1-3.77-.5c-5.54-1.49-9.88-6-11.61-12.08-7.72-27.15-11.67-56.46-14.27-75.86-.67-4.94-1.26-9.3-1.78-12.61,0,.09-.09.18-.14.27-1,2-2.22,4.24-4.14,3.61a2.32,2.32,0,0,1-1.52-1.54,4.13,4.13,0,0,1-.15-1.54,3.74,3.74,0,0,1-2.74,1.51,2,2,0,0,1-1.94-.85,3,3,0,0,1-.21-2.13,4.83,4.83,0,0,1-4.91.68,2.88,2.88,0,0,1-1.75-1.84,7,7,0,0,1,.52-4.36,4.09,4.09,0,0,1-2.41.28c-.82-.15-1.85-.74-2.05-2.7-.27-2.73,1.18-7.74,3.89-13.39,2.09-4.37,5-9.07,6.67-9.75,2.49-1,12.75,2,19.92,5.22,4,1.81,9.06,4.55,10.07,7.3.48,1.29,2.95,10.9,5.34,20.2,1.86,7.22,3.79,14.69,4,15.2a.11.11,0,0,0,0,0l10.92,32.23c.82,2.42,1.87,5,3,7.84,5.18,13,11.62,29.17.75,39.66A16.87,16.87,0,0,1,199.54,232.53Zm-31.16-103h.09a.51.51,0,0,1,.4.41c.58,3.46,1.24,8.38,2,14.07,2.6,19.37,6.54,48.63,14.24,75.71,1.64,5.74,5.71,10,10.91,11.39,5,1.34,10.26-.24,14.51-4.35,10.39-10,4.08-25.85-1-38.57-1.11-2.8-2.17-5.44-3-7.88L195.63,148c-.26-.68-1.46-5.32-4-15.32-2.28-8.84-4.86-18.86-5.32-20.1-.69-1.9-4.08-4.29-9.54-6.74-8-3.59-17.37-5.89-19.14-5.2-2.68,1.06-10.51,16.38-9.93,22.11.16,1.62,1,1.76,1.23,1.81a3.13,3.13,0,0,0,3.23-1.41c.16-.29.27-.46.29-.5a.5.5,0,0,1,.88.47,3.51,3.51,0,0,1-.33.58c-.63,1.14-2,3.88-1.41,5.62a1.91,1.91,0,0,0,1.17,1.22c3.35,1.36,5.39-2.11,5.48-2.25a.48.48,0,0,1,.67-.19.49.49,0,0,1,.2.67c-.54,1-1.22,2.87-.75,3.62.06.1.25.41,1,.38,1.06,0,1.69-.77,2.42-1.62A9.67,9.67,0,0,1,163,130a.49.49,0,0,1,.66,0,.52.52,0,0,1,.07.66,3.86,3.86,0,0,0-.45,2.89,1.31,1.31,0,0,0,.88.9c1,.34,1.87-1.08,3-3.13.28-.54.57-1.08.86-1.56A.5.5,0,0,1,168.38,129.48Z" fill="#231f20"></path><path d="M163.3,130.33a41,41,0,0,1,4-6.22" fill="#fff"></path><path d="M163.3,130.83a.53.53,0,0,1-.24-.06.5.5,0,0,1-.2-.68,41,41,0,0,1,4.1-6.32.49.49,0,0,1,.7,0,.5.5,0,0,1,0,.71,41.06,41.06,0,0,0-3.94,6.1A.5.5,0,0,1,163.3,130.83Z" fill="#231f20"></path><path d="M158.64,128.55s3.07-7.52,6.57-11.33" fill="#fff"></path><path d="M158.64,129.05a.63.63,0,0,1-.19,0,.5.5,0,0,1-.27-.65c.12-.31,3.14-7.65,6.66-11.48a.5.5,0,0,1,.73.67c-3.39,3.7-6.44,11.11-6.47,11.18A.48.48,0,0,1,158.64,129.05Z" fill="#231f20"></path><path d="M152.85,122.94s7.14-12.29,9.51-14.71" fill="#fff"></path><path d="M152.85,123.44a.48.48,0,0,1-.26-.07.5.5,0,0,1-.18-.68c.3-.51,7.21-12.38,9.59-14.81a.5.5,0,0,1,.72.7c-2.3,2.34-9.37,14.49-9.44,14.61A.5.5,0,0,1,152.85,123.44Z" fill="#231f20"></path><path d="M214.82,118.54l-60-6,1.07-7.9,59.48,10.14a1.93,1.93,0,0,1,1.63,2.14h0A1.93,1.93,0,0,1,214.82,118.54Z" fill="#fff"></path><path d="M215,119.05h-.26l-60-6a.49.49,0,0,1-.35-.19.49.49,0,0,1-.1-.37l1.07-7.91a.5.5,0,0,1,.2-.33.52.52,0,0,1,.38-.09l59.49,10.14a2.4,2.4,0,0,1-.39,4.77Zm-.16-1a1.4,1.4,0,1,0,.38-2.78l-59-10.05-.93,6.88Z" fill="#231f20"></path><polygon points="133.04 101.32 131.91 109.67 153.08 112.83 154.29 103.89 133.04 101.32" fill="#fff"></polygon><path d="M153.08,113.33H153l-21.17-3.16a.5.5,0,0,1-.42-.56l1.13-8.36a.49.49,0,0,1,.55-.43l21.25,2.57a.58.58,0,0,1,.34.19.58.58,0,0,1,.1.38l-1.21,8.94a.5.5,0,0,1-.2.33A.45.45,0,0,1,153.08,113.33Zm-20.61-4.08,20.18,3,1.08-7.93-20.26-2.46Z" fill="#231f20"></path><rect x="152.08" y="102.8" width="3.28" height="10.61" rx="1.38" transform="translate(15.86 -19.61) rotate(7.69)" fill="#fff"></rect><path d="M153.46,113.91l-.25,0-.53-.07a1.89,1.89,0,0,1-1.61-2.11l1.06-7.78a1.81,1.81,0,0,1,.72-1.24,1.87,1.87,0,0,1,1.39-.37l.52.07a1.85,1.85,0,0,1,1.24.72,1.92,1.92,0,0,1,.37,1.39l-1.05,7.79a1.91,1.91,0,0,1-.73,1.24A1.85,1.85,0,0,1,153.46,113.91ZM154,103.3a.94.94,0,0,0-.53.18.88.88,0,0,0-.33.58l-1.05,7.79a.86.86,0,0,0,.75,1l.52.07h0a.89.89,0,0,0,.65-.17.88.88,0,0,0,.33-.58l1.06-7.78a.86.86,0,0,0-.18-.65.83.83,0,0,0-.57-.34l-.53-.07Z" fill="#231f20"></path><path d="M133,101.32S123.6,90.42,113.57,92s-17.3,9.56-16.86,16.25c0,0,5.56-8,13.53-4.31,6.64,3,2.47,12.57,21.67,5.72Z" fill="#fbc2eb"></path><path d="M121.2,112.6c-4.42,0-5.85-2.17-7.34-4.41a9.07,9.07,0,0,0-3.83-3.78c-7.49-3.44-12.69,3.82-12.91,4.13a.5.5,0,0,1-.54.2.51.51,0,0,1-.37-.45c-.44-6.57,6.55-15.07,17.28-16.77,10.19-1.62,19.54,9,19.93,9.47a.52.52,0,0,1,.12.4l-1.13,8.35a.52.52,0,0,1-.33.41C127.14,111.91,123.69,112.6,121.2,112.6Zm-15.13-10.1a10.47,10.47,0,0,1,4.38,1,10.06,10.06,0,0,1,4.25,4.14c2.18,3.29,4.07,6.13,16.76,1.66l1.06-7.82c-1.24-1.35-9.9-10.39-18.87-9C104.19,94,97.79,101,97.23,106.86,98.71,105.26,101.88,102.5,106.07,102.5Z" fill="#231f20"></path><path d="M168.91,132.73s-.38-1.43-1.45-7.89-7.51-18.49-4-20.19,5.35,1,7.28,5.21,9.76,17.86,9.76,17.86" fill="#fff"></path><path d="M168.91,133.23a.49.49,0,0,1-.48-.37c0-.06-.4-1.53-1.46-7.94a56.51,56.51,0,0,0-2.41-8c-2.06-5.85-4-11.38-1.28-12.68a4.32,4.32,0,0,1,3.43-.35c1.83.66,3.09,2.71,4.53,5.8,1.91,4.11,9.66,17.68,9.74,17.82a.51.51,0,0,1-.19.68.49.49,0,0,1-.68-.19c-.32-.56-7.85-13.74-9.78-17.89-1.29-2.78-2.46-4.74-4-5.28a3.4,3.4,0,0,0-2.66.31c-1.9.92.06,6.51,1.79,11.45a55.59,55.59,0,0,1,2.45,8.21c1.05,6.32,1.44,7.83,1.45,7.85a.51.51,0,0,1-.36.61Z" fill="#231f20"></path><path d="M265.4,208.88s18-18.39,25.43-19.15,17.36,4.72,17.36,4.72l5.33,7.16-23,26.49Z" fill="#fff"></path><path d="M290.53,228.6a.5.5,0,0,1-.31-.1L265.1,209.27a.46.46,0,0,1-.2-.36.49.49,0,0,1,.14-.38c.74-.76,18.19-18.53,25.74-19.3S308,193.78,308.43,194a.36.36,0,0,1,.16.14l5.33,7.16a.5.5,0,0,1,0,.62l-23,26.5A.48.48,0,0,1,290.53,228.6Zm-24.37-19.77,24.3,18.59,22.42-25.84-5-6.75c-1-.54-10.14-5.31-17-4.6C284.29,190.9,268.83,206.14,266.16,208.83Z" fill="#231f20"></path><path d="M315.78,205s26.94,30.55,20.26,35.68c-14.65,11.26-46.33-17.34-48.93-34.24Z" fill="#fff"></path><path d="M328,243.69a24.74,24.74,0,0,1-9.12-2c-14.46-5.8-30.46-23.25-32.3-35.23a.52.52,0,0,1,.1-.4.51.51,0,0,1,.37-.18l28.66-1.44a.49.49,0,0,1,.4.16c.91,1,22.26,25.36,21.43,34a3.3,3.3,0,0,1-1.24,2.42A13.27,13.27,0,0,1,328,243.69ZM287.7,206.87c2.19,11.68,17.62,28.31,31.59,33.91,4.72,1.9,11.4,3.34,16.44-.53a2.31,2.31,0,0,0,.85-1.72c.76-7.85-19-30.78-21-33.06Z" fill="#231f20"></path><path d="M246,199.72c-14.37,4.09-28,11-36.88,20.52-3.61,3.86-6.68,9.25-4.91,14.23a13.34,13.34,0,0,0,5.47,6.24c9.52,6.35,21.73,6.37,33.15,7a6.33,6.33,0,0,1,3.81,1.08c1.45,1.22,1.53,3.38,2.28,5.12,2.19,5.08,9.21,5.46,14.67,4.55,10.65-1.79,21.2-5.56,29.49-12.5s14.06-17.33,13.8-28.13c-.34-14-10-20.88-23.16-22.14C272.44,194.66,258.92,196.05,246,199.72Z" fill="#fff"></path><path d="M259.17,259.38c-3.91,0-8.84-.93-10.69-5.22a17.4,17.4,0,0,1-.61-1.85,4.33,4.33,0,0,0-5.05-4.05l-3.39-.19c-10.47-.56-21.31-1.14-30-6.95-3-2-4.81-4.09-5.67-6.48-2.19-6.14,2.78-12.35,5-14.74,8.31-8.88,21.49-16.22,37.11-20.66h0c12.92-3.68,26.38-5.1,37.9-4,14.69,1.41,23.29,9.66,23.61,22.63.24,10.33-5,21-14,28.52-7.55,6.33-17.56,10.57-29.73,12.61A27.83,27.83,0,0,1,259.17,259.38Zm-13-59.18c-15.44,4.39-28.46,11.63-36.65,20.38-2.12,2.26-6.81,8.11-4.81,13.72.78,2.18,2.51,4.14,5.28,6,8.47,5.65,19.16,6.23,29.51,6.78l3.39.19a6.67,6.67,0,0,1,4.11,1.2,6.77,6.77,0,0,1,1.85,3.58,13.31,13.31,0,0,0,.56,1.72c2.47,5.73,11.43,4.71,14.12,4.26,12-2,21.84-6.19,29.26-12.39,8.77-7.34,13.86-17.71,13.62-27.74-.31-12.59-8.37-20.28-22.71-21.65-11.39-1.09-24.72.31-37.53,4Z" fill="#231f20"></path><path d="M308.19,194.45c5,3.38,10,9,8.16,15.48-1.79,6.17-8.36,11-14.21,12.87a9,9,0,0,1-3.84.55c-1.57-.2-3.7-1.46-3.32-3.29a8.9,8.9,0,0,1,2.53-4.15,30.3,30.3,0,0,1,3.83-3.41c-2.35-4.52-1.74-10.83,2.55-14" fill="#fff"></path><path d="M299,223.89a5.37,5.37,0,0,1-.8,0A5,5,0,0,1,295,222a2.54,2.54,0,0,1-.46-2,9.39,9.39,0,0,1,2.65-4.39,31.17,31.17,0,0,1,3.57-3.22c-2.13-4.48-1.65-10.9,2.88-14.24a.51.51,0,0,1,.7.11.5.5,0,0,1-.11.7c-4.23,3.11-4.54,9.23-2.4,13.35a.51.51,0,0,1-.14.63,29.38,29.38,0,0,0-3.77,3.36,8.44,8.44,0,0,0-2.4,3.9,1.56,1.56,0,0,0,.29,1.27,4.07,4.07,0,0,0,2.6,1.42,8.52,8.52,0,0,0,3.63-.53c5.45-1.77,12.12-6.45,13.87-12.53,2.09-7.23-4.86-12.85-7.95-14.93a.49.49,0,0,1-.13-.69.5.5,0,0,1,.69-.14c3.27,2.21,10.63,8.18,8.36,16-1.87,6.47-8.64,11.29-14.53,13.21A11,11,0,0,1,299,223.89Z" fill="#231f20"></path><ellipse cx="283.47" cy="206.4" rx="6.29" ry="3.59" fill="#231f20"></ellipse><path d="M283.47,210.49c-3.8,0-6.78-1.8-6.78-4.09s3-4.09,6.78-4.09,6.79,1.8,6.79,4.09S287.28,210.49,283.47,210.49Zm0-7.18c-3.14,0-5.79,1.42-5.79,3.09s2.65,3.09,5.79,3.09,5.79-1.41,5.79-3.09S286.61,203.31,283.47,203.31Z" fill="#231f20"></path><path d="M288.73,208.59s-6.93-4.3-4.57-10.9c2.41-6.75-4.73-7.22-6.69-1.77-1.47,4.08-.61,9.44,1.53,12C279,207.91,281.75,212.31,288.73,208.59Z" fill="#fff"></path><path d="M283.62,210.57a6,6,0,0,1-5-2.4c-2.32-2.75-3-8.35-1.58-12.42,1.19-3.31,4.1-4.59,6.11-3.87,1.57.56,2.79,2.43,1.52,6-2.19,6.14,4.1,10.14,4.37,10.31a.51.51,0,0,1,0,.87A11.43,11.43,0,0,1,283.62,210.57ZM282,192.69a4.68,4.68,0,0,0-4,3.4c-1.33,3.71-.67,9,1.45,11.5.14.2,2.47,3.71,8.38.92-1.75-1.36-6.08-5.4-4.08-11,.85-2.39.5-4.19-.92-4.7A2.43,2.43,0,0,0,282,192.69Z" fill="#231f20"></path><ellipse cx="306.26" cy="79.69" rx="2.26" ry="1.21" transform="translate(148.33 353.93) rotate(-74.65)" fill="#231f20"></ellipse><ellipse cx="290.37" cy="77.67" rx="2.26" ry="1.21" transform="translate(138.6 337.11) rotate(-74.65)" fill="#231f20"></ellipse><path d="M340.58,74.53q-13.68-4.2-27.28-8.65c-7.37-2.4-14.74-4.84-22.06-7.39-3.36-1.17-6.71-2.36-10-3.6-1.65-.62-10.39-2.55-6.17-5.27,2.23-1.45,5.23-.88,7.7-1.88a16,16,0,0,0,3-1.85c11-7.48,23.45-4.77,35.31-1.45C344.72,51,344.47,62.07,340.58,74.53Z" fill="#fff"></path><path d="M340.58,75a.39.39,0,0,1-.15,0c-8.51-2.62-17.44-5.45-27.28-8.65-8.85-2.88-15.65-5.16-22.08-7.4-4-1.41-7.14-2.52-10-3.6-.24-.09-.63-.21-1.11-.35-3.16-.95-6.27-2-6.51-3.72-.11-.74.34-1.45,1.35-2.09A10.16,10.16,0,0,1,279.25,48a12.47,12.47,0,0,0,3.3-.67,12.45,12.45,0,0,0,2.4-1.43l.54-.38c11-7.53,23.7-4.87,35.73-1.51,10.54,2.94,17.08,7,20,12.33,3.13,5.76,1.68,12.53-.15,18.39A.5.5,0,0,1,340.58,75ZM302,41.58a27.44,27.44,0,0,0-16,4.72l-.53.37a13.5,13.5,0,0,1-2.6,1.54,14.12,14.12,0,0,1-3.55.74A9.11,9.11,0,0,0,275.3,50c-.44.28-1,.71-.9,1.11.17,1.2,4.12,2.39,5.81,2.9l1.17.37c2.89,1.08,6,2.19,10,3.6,6.42,2.23,13.22,4.51,22.06,7.39,9.65,3.14,18.42,5.92,26.79,8.5,1.78-5.81,2.95-11.87.08-17.14-2.77-5.1-9.11-9-19.38-11.85C314.5,43.12,308.15,41.58,302,41.58Z" fill="#231f20"></path><path d="M221.42,223.17c-2.69.47-5.68,1.2-7.14,3.51-1.21,1.93-1,4.46-.11,6.56,2.18,5.24,7.8,8.33,13.38,9.32a28.6,28.6,0,0,0,18.71-3.21c4.29-2.37,11.87-8.15,10.58-14C254.59,215.26,227.68,222.07,221.42,223.17Z" fill="#ffafcc"></path><path d="M247.74,206.9a9.86,9.86,0,0,0-4-.93,8.94,8.94,0,0,0-3.36,1,25.37,25.37,0,0,0-5,3.08,5.93,5.93,0,0,0-1.62,1.73,2.37,2.37,0,0,0-.07,2.29,3.38,3.38,0,0,0,2.24,1.28,44.78,44.78,0,0,0,11.28.65,9.36,9.36,0,0,0,4.52-.88C257,212,250.39,208,247.74,206.9Z" fill="#bde0fe"></path><path d="M255,203.9c3.31-2.16,7.46-2.41,11.41-2.53a4.51,4.51,0,0,1,3.1.68,3,3,0,0,1,.92,1.57c.6,2.33-.83,4.85-2.91,6.08a9.8,9.8,0,0,1-8.94.31C256.78,209,252.34,205.64,255,203.9Z" fill="#a2d2ff"></path><path d="M265.06,252.4a35,35,0,0,1-4-.23,8,8,0,0,1-4.52-1.61,6,6,0,0,1-1.66-5.34h0c.71-4.86,5-11.72,10.07-13.8,3.29-1.35,6.69-1.22,9.1.35a7.37,7.37,0,0,1,3.27,6.41,26.93,26.93,0,0,1-1.14,7.28,9.91,9.91,0,0,1-2.08,4.6c-1.52,1.59-3.84,2-5.69,2.18C267.32,252.34,266.19,252.4,265.06,252.4Zm-9.16-7a5,5,0,0,0,1.34,4.44,7.08,7.08,0,0,0,4,1.37,34.08,34.08,0,0,0,7.14.06c1.68-.16,3.77-.52,5.07-1.87a9,9,0,0,0,1.83-4.15,26.24,26.24,0,0,0,1.11-7,6.52,6.52,0,0,0-2.81-5.6c-2.14-1.39-5.2-1.48-8.18-.26-4.73,2-8.79,8.43-9.46,13Z" fill="#d1d3d4"></path><path d="M286.68,239.82a3.53,3.53,0,0,1-1.59-.35c-2.13-1.05-2.92-4.13-3.63-6.84l0-.2c-.71-2.75-1.32-5.87.4-8.21s4.79-3,8.08-1.5c3.67,1.64,7.16,5.75,6.39,9.53-.65,3.16-4.19,5.71-7.29,7A5.82,5.82,0,0,1,286.68,239.82Zm-.29-16.9a4.46,4.46,0,0,0-3.77,1.9c-1.46,2-.89,4.84-.24,7.36h0l.05.2c.65,2.51,1.38,5.35,3.1,6.19a3.57,3.57,0,0,0,3.06-.2c2.87-1.23,6.14-3.53,6.71-6.32.65-3.2-2.48-6.93-5.82-8.42A8,8,0,0,0,286.39,222.92Z" fill="#d1d3d4"></path><path d="M281.85,158.11a22,22,0,0,0-14.38,11c-5.46,9.57-9,20.83-8.08,20.55S277.48,177.54,281.85,158.11Z" fill="#231f20"></path><path d="M259.35,190.15a.56.56,0,0,1-.45-.22c-.87-1.09,3.42-12.8,8.13-21.08,5.51-9.67,14.37-11.17,14.74-11.23a.5.5,0,0,1,.57.6c-4.37,19.4-21.67,31.56-22.81,31.91Zm.39-.72h0Zm21.45-30.65a22.08,22.08,0,0,0-13.29,10.56c-4.64,8.15-7.7,17.11-8.12,19.54C262.93,186.9,277,175.76,281.19,158.78Z" fill="#231f20"></path><path d="M281.85,158.11s-8.92,10-4.73,23.66C277.12,181.77,286.62,176.51,281.85,158.11Z" fill="#231f20"></path><path d="M277.12,182.26a.58.58,0,0,1-.19,0,.51.51,0,0,1-.29-.32c-4.22-13.81,4.75-24,4.84-24.13a.52.52,0,0,1,.49-.15.47.47,0,0,1,.36.36c4.81,18.56-4.57,24-5,24.21A.53.53,0,0,1,277.12,182.26Zm4.49-23c-1.87,2.51-7.21,10.92-4.21,21.74C279.24,179.53,285.05,173.71,281.61,159.22Z" fill="#231f20"></path></g></svg>